<svg width="117" height="158" viewBox="0 0 117 158" fill="none" xmlns="http://www.w3.org/2000/svg">
<path d="M116.192 10.4868C114.829 6.4183 111.944 3.25829 108.368 1.48078C104.812 -0.296735 100.544 -0.731238 93.5105 1.61903L13.6304 28.2422C6.59669 30.5925 3.43547 33.476 1.65728 37.0507C-0.140666 40.6058 -0.555577 44.852 0.8077 48.9403C2.17098 53.0088 5.05559 56.1689 8.63173 57.9464C12.1881 59.7239 16.4557 60.1584 23.4895 57.8081L103.37 31.185C110.403 28.8544 113.565 25.9512 115.343 22.3764C117.141 18.8214 117.556 14.5751 116.192 10.4868Z" fill="white"/>
<path d="M116.192 59.7634C114.829 55.6949 111.944 52.5348 108.368 50.7573C104.812 48.9798 100.544 48.5453 93.5105 50.8956L13.6304 77.5187C6.59669 79.869 3.43547 82.7525 1.65728 86.3273C-0.140667 89.8823 -0.555578 94.1286 0.807699 98.2169C2.17098 102.285 5.05559 105.445 8.63172 107.223C12.1881 109 16.4557 109.435 23.4895 107.085L103.37 80.4813C110.403 78.131 113.565 75.2475 115.343 71.6529C117.141 68.0979 117.556 63.8517 116.192 59.7634Z" fill="white"/>
<path d="M116.192 109.06C114.829 104.991 111.944 101.831 108.368 100.054C104.812 98.2761 100.544 97.8416 93.5105 100.192L13.6304 126.815C6.59669 129.165 3.43547 132.049 1.65728 135.624C-0.140667 139.179 -0.555578 143.425 0.807699 147.513C2.17098 151.582 5.05559 154.742 8.63172 156.519C12.1881 158.297 16.4557 158.731 23.4895 156.381L103.37 129.758C110.403 127.427 113.565 124.524 115.343 120.949C117.141 117.394 117.556 113.148 116.192 109.06Z" fill="white"/>
</svg>
